<svg width="21" height="24" viewBox="0 0 21 24" fill="none" xmlns="http://www.w3.org/2000/svg">
<path d="M12.7109 3.78906C12.3203 3.39839 11.6846 3.39839 11.2939 3.78906C10.9036 4.17962 10.9037 4.81444 11.2939 5.20508L11.2949 5.20605L16.2305 10.1465L17.083 11H1.5C0.946545 11.0001 0.5 11.4465 0.5 12C0.50021 12.5533 0.946675 12.9999 1.5 13H17.0898L16.2344 13.8535L11.29 18.793V18.7939C10.8994 19.1846 10.8994 19.8193 11.29 20.21C11.6807 20.6005 12.3154 20.6006 12.7061 20.21L20.2061 12.71C20.5966 12.3193 20.5966 11.6846 20.2061 11.2939L19.8525 10.9404L19.8574 10.9355L12.7109 3.78906Z" fill="#141414" stroke="black"/>
</svg>
