<svg width="60" height="60" viewBox="0 0 60 60" fill="none" xmlns="http://www.w3.org/2000/svg">
<path d="M30 40C32.6522 40 35.1957 38.9464 37.0711 37.0711C38.9464 35.1957 40 32.6522 40 30C40 27.3478 38.9464 24.8043 37.0711 22.9289C35.1957 21.0536 32.6522 20 30 20C27.3478 20 24.8043 21.0536 22.9289 22.9289C21.0536 24.8043 20 27.3478 20 30C20 32.6522 21.0536 35.1957 22.9289 37.0711C24.8043 38.9464 27.3478 40 30 40Z" fill="white"/>
<path fill-rule="evenodd" clip-rule="evenodd" d="M30 0C30.8841 0 31.7319 0.351189 32.357 0.976311C32.9821 1.60143 33.3333 2.44928 33.3333 3.33333V6.9C38.3207 7.61871 42.9414 9.93259 46.5044 13.4956C50.0674 17.0586 52.3813 21.6793 53.1 26.6667H56.6667C57.5507 26.6667 58.3986 27.0179 59.0237 27.643C59.6488 28.2681 60 29.1159 60 30C60 30.8841 59.6488 31.7319 59.0237 32.357C58.3986 32.9821 57.5507 33.3333 56.6667 33.3333H53.1C52.3813 38.3207 50.0674 42.9414 46.5044 46.5044C42.9414 50.0674 38.3207 52.3813 33.3333 53.1V56.6667C33.3333 57.5507 32.9821 58.3986 32.357 59.0237C31.7319 59.6488 30.8841 60 30 60C29.1159 60 28.2681 59.6488 27.643 59.0237C27.0179 58.3986 26.6667 57.5507 26.6667 56.6667V53.1C21.6793 52.3813 17.0586 50.0674 13.4956 46.5044C9.93259 42.9414 7.61871 38.3207 6.9 33.3333H3.33333C2.44928 33.3333 1.60143 32.9821 0.976311 32.357C0.351189 31.7319 0 30.8841 0 30C0 29.1159 0.351189 28.2681 0.976311 27.643C1.60143 27.0179 2.44928 26.6667 3.33333 26.6667H6.9C7.62128 21.6804 9.93599 17.0611 13.4985 13.4985C17.0611 9.93599 21.6804 7.62128 26.6667 6.9V3.33333C26.6667 2.44928 27.0179 1.60143 27.643 0.976311C28.2681 0.351189 29.1159 0 30 0ZM13.3333 30C13.3333 25.5797 15.0893 21.3405 18.2149 18.2149C21.3405 15.0893 25.5797 13.3333 30 13.3333C34.4203 13.3333 38.6595 15.0893 41.7851 18.2149C44.9107 21.3405 46.6667 25.5797 46.6667 30C46.6667 34.4203 44.9107 38.6595 41.7851 41.7851C38.6595 44.9107 34.4203 46.6667 30 46.6667C25.5797 46.6667 21.3405 44.9107 18.2149 41.7851C15.0893 38.6595 13.3333 34.4203 13.3333 30Z" fill="white"/>
</svg>
