<svg width="55" height="55" viewBox="0 0 55 55" fill="none" xmlns="http://www.w3.org/2000/svg">
<path d="M42.4855 6.63273L37.0309 3.76909C32.2418 1.25727 29.8473 0 27.2727 0C24.6982 0 22.3036 1.25455 17.5145 3.76909L16.6391 4.23L40.9745 18.1364L51.9273 12.6545C50.1655 10.6582 47.3236 9.16636 42.4855 6.62727M53.8582 16.2655L42.9545 21.72V30C42.9545 30.5425 42.739 31.0628 42.3554 31.4464C41.9719 31.83 41.4516 32.0455 40.9091 32.0455C40.3666 32.0455 39.8463 31.83 39.4627 31.4464C39.0791 31.0628 38.8636 30.5425 38.8636 30V23.7655L29.3182 28.5382V54.2836C31.2764 53.7955 33.5045 52.6282 37.0309 50.7764L42.4855 47.9127C48.3518 44.8336 51.2864 43.2955 52.9173 40.5273C54.5455 37.7618 54.5455 34.3173 54.5455 27.4364V27.1173C54.5455 21.9545 54.5455 18.7255 53.8582 16.2655ZM25.2273 54.2836V28.5382L0.687273 16.2655C2.43837e-07 18.7255 0 21.9545 0 27.1118V27.4309C0 34.3173 -3.25116e-07 37.7618 1.62818 40.5273C3.25909 43.2955 6.19364 44.8364 12.06 47.9155L17.5145 50.7764C21.0409 52.6282 23.2691 53.7955 25.2273 54.2836ZM2.61818 12.6573L27.2727 24.9845L36.5755 20.3345L12.3409 6.48545L12.06 6.63273C7.22455 9.16909 4.38 10.6609 2.61818 12.66" fill="white"/>
</svg>
