<svg width="14" height="12" viewBox="0 0 14 12" fill="none" xmlns="http://www.w3.org/2000/svg">
<path d="M13.3383 5.99335L8.27578 11.0559C8.16826 11.1598 8.02456 11.2179 7.875 11.2179C7.72544 11.2179 7.58174 11.1598 7.47422 11.0559C7.36859 10.9492 7.30934 10.8052 7.30934 10.6551C7.30934 10.505 7.36859 10.3609 7.47422 10.2543L11.5805 6.15507H0.5625C0.413316 6.15507 0.270242 6.09581 0.164753 5.99032C0.0592633 5.88483 0 5.74175 0 5.59257C0 5.44338 0.0592633 5.30031 0.164753 5.19482C0.270242 5.08933 0.413316 5.03007 0.5625 5.03007H11.5805L7.47422 0.93085C7.38452 0.821559 7.33868 0.682811 7.34562 0.541594C7.35255 0.400377 7.41177 0.266788 7.51174 0.166812C7.61172 0.0668365 7.74531 0.00762183 7.88653 0.000686165C8.02774 -0.0062495 8.16649 0.0395897 8.27578 0.129288L13.3383 5.19179C13.4439 5.29843 13.5032 5.44247 13.5032 5.59257C13.5032 5.74267 13.4439 5.8867 13.3383 5.99335Z" fill="#E54D26"/>
</svg>
