<svg width="60" height="48" viewBox="0 0 60 48" fill="none" xmlns="http://www.w3.org/2000/svg">
<g clip-path="url(#clip0_80_4049)">
<path d="M10.5 0C8.01562 0 6 2.01562 6 4.5V9H1.5C0.675 9 0 9.675 0 10.5C0 11.325 0.675 12 1.5 12H6H25.5C26.325 12 27 12.675 27 13.5C27 14.325 26.325 15 25.5 15H6H4.5C3.675 15 3 15.675 3 16.5C3 17.325 3.675 18 4.5 18H6H22.5C23.325 18 24 18.675 24 19.5C24 20.325 23.325 21 22.5 21H6H1.5C0.675 21 0 21.675 0 22.5C0 23.325 0.675 24 1.5 24H6H19.5C20.325 24 21 24.675 21 25.5C21 26.325 20.325 27 19.5 27H6V39C6 43.9688 10.0312 48 15 48C19.9687 48 24 43.9688 24 39H36C36 43.9688 40.0312 48 45 48C49.9687 48 54 43.9688 54 39H57C58.6594 39 60 37.6594 60 36C60 34.3406 58.6594 33 57 33V27V24V22.2469C57 20.6531 56.3719 19.125 55.2469 18L48 10.7531C46.875 9.62812 45.3469 9 43.7531 9H39V4.5C39 2.01562 36.9844 0 34.5 0H10.5ZM51 22.2469V24H39V15H43.7531L51 22.2469ZM15 34.5C16.1935 34.5 17.3381 34.9741 18.182 35.818C19.0259 36.6619 19.5 37.8065 19.5 39C19.5 40.1935 19.0259 41.3381 18.182 42.182C17.3381 43.0259 16.1935 43.5 15 43.5C13.8065 43.5 12.6619 43.0259 11.818 42.182C10.9741 41.3381 10.5 40.1935 10.5 39C10.5 37.8065 10.9741 36.6619 11.818 35.818C12.6619 34.9741 13.8065 34.5 15 34.5ZM40.5 39C40.5 37.8065 40.9741 36.6619 41.818 35.818C42.6619 34.9741 43.8065 34.5 45 34.5C46.1935 34.5 47.3381 34.9741 48.182 35.818C49.0259 36.6619 49.5 37.8065 49.5 39C49.5 40.1935 49.0259 41.3381 48.182 42.182C47.3381 43.0259 46.1935 43.5 45 43.5C43.8065 43.5 42.6619 43.0259 41.818 42.182C40.9741 41.3381 40.5 40.1935 40.5 39Z" fill="white"/>
</g>
<defs>
<clipPath id="clip0_80_4049">
<rect width="60" height="48" fill="white"/>
</clipPath>
</defs>
</svg>
