<svg width="55" height="55" viewBox="0 0 55 55" fill="none" xmlns="http://www.w3.org/2000/svg">
<path d="M27.499 45C25.2004 45.0029 22.9239 44.5516 20.8002 43.6721C18.6765 42.7926 16.7475 41.5022 15.124 39.875L27.499 27.5V10C29.7972 10 32.0728 10.4527 34.196 11.3321C36.3192 12.2116 38.2484 13.5006 39.8734 15.1256C41.4984 16.7507 42.7875 18.6798 43.6669 20.803C44.5464 22.9262 44.999 25.2019 44.999 27.5C44.999 29.7981 44.5464 32.0738 43.6669 34.197C42.7875 36.3202 41.4984 38.2493 39.8734 39.8744C38.2484 41.4994 36.3192 42.7884 34.196 43.6679C32.0728 44.5474 29.7972 45 27.499 45Z" fill="white"/>
<path fill-rule="evenodd" clip-rule="evenodd" d="M55 27.5C55 42.6875 42.6875 55 27.5 55C12.3125 55 0 42.6875 0 27.5C0 12.3125 12.3125 0 27.5 0C42.6875 0 55 12.3125 55 27.5ZM50 27.5C50 30.4547 49.418 33.3806 48.2873 36.1104C47.1566 38.8402 45.4992 41.3206 43.4099 43.4099C41.3206 45.4992 38.8402 47.1566 36.1104 48.2873C33.3806 49.418 30.4547 50 27.5 50C24.5453 50 21.6194 49.418 18.8896 48.2873C16.1598 47.1566 13.6794 45.4992 11.5901 43.4099C9.50078 41.3206 7.84344 38.8402 6.71271 36.1104C5.58198 33.3806 5 30.4547 5 27.5C5 21.5326 7.37053 15.8097 11.5901 11.5901C15.8097 7.37053 21.5326 5 27.5 5C33.4674 5 39.1903 7.37053 43.4099 11.5901C47.6295 15.8097 50 21.5326 50 27.5Z" fill="white"/>
</svg>
