<svg width="58" height="50" viewBox="0 0 58 50" fill="none" xmlns="http://www.w3.org/2000/svg">
<path d="M0 41.1765V38.8235C0 37.1569 0.416667 35.6255 1.25 34.2294C2.08333 32.8333 3.23529 31.7667 4.70588 31.0294C7.5 29.6078 10.4049 28.4804 13.4206 27.6471C16.4363 26.8137 19.5118 26.3971 22.6471 26.3971C23.3333 26.3971 23.8725 26.7039 24.2647 27.3176C24.6569 27.9314 24.7304 28.5804 24.4853 29.2647C24.1912 30.2941 23.9706 31.3235 23.8235 32.3529C23.6765 33.3824 23.6029 34.4363 23.6029 35.5147C23.6029 36.9363 23.75 38.3088 24.0441 39.6324C24.3382 40.9559 24.7549 42.2549 25.2941 43.5294C25.6863 44.3627 25.65 45.1598 25.1853 45.9206C24.7206 46.6814 24.0706 47.0608 23.2353 47.0588H5.88235C4.26471 47.0588 2.88039 46.4833 1.72941 45.3323C0.578431 44.1814 0.00196078 42.7961 0 41.1765ZM44.1176 41.1765C45.7353 41.1765 47.1206 40.601 48.2735 39.45C49.4265 38.299 50.002 36.9137 50 35.2941C49.998 33.6745 49.4226 32.2902 48.2735 31.1412C47.1245 29.9922 45.7392 29.4157 44.1176 29.4118C42.4961 29.4078 41.1118 29.9843 39.9647 31.1412C38.8176 32.298 38.2412 33.6824 38.2353 35.2941C38.2294 36.9059 38.8059 38.2912 39.9647 39.45C41.1235 40.6088 42.5078 41.1843 44.1176 41.1765ZM23.5294 23.5294C20.2941 23.5294 17.5245 22.3774 15.2206 20.0735C12.9167 17.7696 11.7647 15 11.7647 11.7647C11.7647 8.52941 12.9167 5.7598 15.2206 3.45588C17.5245 1.15196 20.2941 0 23.5294 0C26.7647 0 29.5343 1.15196 31.8382 3.45588C34.1422 5.7598 35.2941 8.52941 35.2941 11.7647C35.2941 15 34.1422 17.7696 31.8382 20.0735C29.5343 22.3774 26.7647 23.5294 23.5294 23.5294ZM40.7353 47.6471L40.2941 45.5882C39.7059 45.3431 39.1549 45.0863 38.6412 44.8176C38.1274 44.549 37.6 44.2176 37.0588 43.8235L34.9265 44.4853C34.2892 44.6814 33.6647 44.6569 33.0529 44.4118C32.4412 44.1667 31.9627 43.7745 31.6176 43.2353L31.0294 42.2059C30.6863 41.6176 30.5637 40.9804 30.6618 40.2941C30.7598 39.6078 31.0784 39.0441 31.6176 38.6029L33.2353 37.2059C33.1373 36.5196 33.0882 35.8824 33.0882 35.2941C33.0882 34.7059 33.1373 34.0686 33.2353 33.3824L31.6176 31.9853C31.0784 31.5441 30.7598 30.9922 30.6618 30.3294C30.5637 29.6667 30.6863 29.0422 31.0294 28.4559L31.6912 27.3529C32.0343 26.8137 32.5 26.4216 33.0882 26.1765C33.6765 25.9314 34.2892 25.9069 34.9265 26.1029L37.0588 26.7647C37.598 26.3725 38.1255 26.0412 38.6412 25.7706C39.1569 25.5 39.7078 25.2431 40.2941 25L40.7353 22.8676C40.8824 22.1814 41.2137 21.6304 41.7294 21.2147C42.2451 20.799 42.8451 20.5902 43.5294 20.5882H44.7059C45.3922 20.5882 45.9931 20.8088 46.5088 21.25C47.0245 21.6912 47.3549 22.2549 47.5 22.9412L47.9412 25C48.5294 25.2451 49.0804 25.5147 49.5941 25.8088C50.1078 26.1029 50.6353 26.4706 51.1765 26.9118L53.1618 26.25C53.848 26.0049 54.5098 26.0049 55.1471 26.25C55.7843 26.4951 56.2745 26.9118 56.6176 27.5L57.2059 28.5294C57.549 29.1176 57.6716 29.7549 57.5735 30.4412C57.4755 31.1274 57.1569 31.6912 56.6176 32.1324L55 33.5294C55.098 34.1176 55.1471 34.7304 55.1471 35.3676C55.1471 36.0049 55.098 36.6176 55 37.2059L56.6176 38.6029C57.1569 39.0441 57.4755 39.5961 57.5735 40.2588C57.6716 40.9216 57.549 41.5461 57.2059 42.1324L56.5441 43.2353C56.201 43.7745 55.7353 44.1667 55.1471 44.4118C54.5588 44.6569 53.9461 44.6814 53.3088 44.4853L51.1765 43.8235C50.6373 44.2157 50.1098 44.5461 49.5941 44.8147C49.0784 45.0833 48.5274 45.3412 47.9412 45.5882L47.5 47.7206C47.3529 48.4069 47.0225 48.9588 46.5088 49.3765C45.9951 49.7941 45.3941 50.002 44.7059 50H43.5294C42.8431 50 42.2431 49.7794 41.7294 49.3382C41.2157 48.8971 40.8843 48.3333 40.7353 47.6471Z" fill="white"/>
</svg>
